# xmcd CD database file
#
# Track frame offsets:
#	150
#	17243
#	35344
#	55797
#	77907
#	89306
#	107829
#	122631
#	145751
#	162909
#	178205
#
# Disc length: 2827 seconds
#
# Revision: 0
# Processed by: cddbd v1.5.2PL0 Copyright (c) Steve Scherf et al.
# Submitted via: CDex 1.40Beta8
#
DISCID=8d0b090b
DTITLE=Jackson Taylor Band - Easy Lovin' Stranger
DYEAR=2005
DGENRE=Country
TTITLE0=Whiskey
TTITLE1=Tear Me Down
TTITLE2=Easy Lovin'Stranger
TTITLE3=Old Habits
TTITLE4=Hard Timin Love
TTITLE5=It's Not Suppose To Be That Way
TTITLE6=Slow Rollin Low
TTITLE7=Easter Last Year
TTITLE8=Tequila Freedom
TTITLE9=Mothers Prayers
TTITLE10=Tragic
EXTD=YEAR: 2005 ID3G: 2
EXTT0=
EXTT1=
EXTT2=
EXTT3=
EXTT4=
EXTT5=
EXTT6=
EXTT7=
EXTT8=
EXTT9=
EXTT10=
PLAYORDER=
